PERFORMER "Calvin Harris"
TITLE "Essential Mix (2008-10-18) [TMB]"
FILE "Essential Mix - 2008-10-18 - Calvin Harris.mp3" MP3
 TRACK 01 AUDIO
   PERFORMER "Essential Mix"
   TITLE "Intro"
   INDEX 01 00:00:00
 TRACK 02 AUDIO
   PERFORMER "Cut Copy"
   TITLE "Hearts On Fire (Calvin Harris Remix)"
   INDEX 01 03:04:17
 TRACK 03 AUDIO
   PERFORMER "DJ Dan and Donald Glaude"
   TITLE "Stick Em (TJD Remix)"
   INDEX 01 08:32:06
 TRACK 04 AUDIO
   PERFORMER "Dave Lee"
   TITLE "Mucho Mucho (Joey Negro Remix)"
   INDEX 01 13:52:06
 TRACK 05 AUDIO
   PERFORMER "Pryda"
   TITLE "Rafunk (Cosmonauts DJ Edit)"
   INDEX 01 20:13:06
 TRACK 06 AUDIO
   PERFORMER "Etienne De Crecy"
   TITLE "France"
   INDEX 01 24:55:03
 TRACK 07 AUDIO
   PERFORMER "Santagold"
   TITLE "L.E.S. Artistes (Switch Remix)"
   INDEX 01 30:24:19
 TRACK 08 AUDIO
   PERFORMER "La Roux"
   TITLE "Quicksand (Autokratz Remix)"
   INDEX 01 34:57:01
 TRACK 09 AUDIO
   PERFORMER "Artist Unknown"
   TITLE "Troopers"
   INDEX 01 39:00:25
 TRACK 10 AUDIO
   PERFORMER "Hustlin"
   TITLE "Jugs"
   INDEX 01 43:35:04
 TRACK 11 AUDIO
   PERFORMER "Deadmau5"
   TITLE "The Reward is Cheese"
   INDEX 01 48:24:20
 TRACK 12 AUDIO
   PERFORMER "Autokratz"
   TITLE "Just Keep Walking"
   INDEX 01 53:06:17
 TRACK 13 AUDIO
   PERFORMER "Bag Raiders"
   TITLE "Nil By Mouth (Knightlife Remix)"
   INDEX 01 57:52:07
 TRACK 14 AUDIO
   PERFORMER "Filthy Dukes"
   TITLE "TupacRobotClubRock (Oliver$ Remix)"
   INDEX 01 62:26:19
 TRACK 15 AUDIO
   PERFORMER "Puzique"
   TITLE "Don't Go (Original Mix)"
   INDEX 01 65:30:10
 TRACK 16 AUDIO
   PERFORMER "Izza Kizza"
   TITLE "Everywhere (Calvin Harris Remix)"
   INDEX 01 70:07:25
 TRACK 17 AUDIO
   PERFORMER "Dizzee Rascal Feat Calvin Harris and Chrome"
   TITLE "Dance Wiv Me (Calvin Harris Mash up)"
   INDEX 01 73:19:04
 TRACK 18 AUDIO
   PERFORMER "Spank Rock"
   TITLE "Bump (Switch Remix)"
   INDEX 01 78:11:18
 TRACK 19 AUDIO
   PERFORMER "Riva Starr"
   TITLE "I Jack U (Original Mix)"
   INDEX 01 83:52:27
 TRACK 20 AUDIO
   PERFORMER "DJ Assault"
   TITLE "Ass N Titties (Calvin Harris Edit)"
   INDEX 01 88:45:12
 TRACK 21 AUDIO
   PERFORMER "Ting Tings"
   TITLE "Great DJ (Calvin Harris Remix)"
   INDEX 01 94:16:11
 TRACK 22 AUDIO
   PERFORMER "Jonathan Landossa"
   TITLE "Hard Trip (Original Mix)"
   INDEX 01 100:13:16
 TRACK 23 AUDIO
   PERFORMER "Deadmau5"
   TITLE "Ghosts N Stuff"
   INDEX 01 106:13:16
 TRACK 24 AUDIO
   PERFORMER "The Chemical Brothers"
   TITLE "Hey Boy Hey Girl (Soulwax Remix)"
   INDEX 01 111:43:17
 TRACK 25 AUDIO
   PERFORMER "The Cosmonauts"
   TITLE "Goodnight"
   INDEX 01 116:13:21
